<?xml version="1.0" standalone="no"?>
<!DOCTYPE svg PUBLIC "-//W3C//DTD SVG 20010904//EN"
 "http://www.w3.org/TR/2001/REC-SVG-20010904/DTD/svg10.dtd">
<svg version="1.0" xmlns="http://www.w3.org/2000/svg"
 width="100.000000pt" height="100.000000pt" viewBox="0 0 100.000000 100.000000"
 preserveAspectRatio="xMidYMid meet">
<metadata>
Created by potrace 1.11, written by Peter Selinger 2001-2013
</metadata>
<g transform="translate(0.000000,100.000000) scale(0.100000,-0.100000)"
fill="#000000" stroke="none">
<path d="M112 907 c-10 -11 25 -103 163 -432 96 -231 181 -422 188 -427 15
-10 38 -10 54 0 17 11 355 830 351 850 -3 14 -15 17 -58 17 l-55 0 -114 -272
c-63 -150 -117 -273 -120 -273 -4 0 -59 123 -122 273 l-116 272 -80 3 c-59 2
-83 -1 -91 -11z m85 -38 c27 -17 33 -26 29 -43 -8 -30 15 -86 35 -86 9 0 19
-7 23 -15 3 -8 1 -15 -4 -15 -16 0 -12 -25 17 -90 16 -38 31 -59 38 -56 9 3
41 -62 95 -192 69 -165 81 -203 77 -236 -5 -35 -21 -66 -31 -55 -3 3 -313 743
-332 793 -9 22 12 20 53 -5z"/>
<path d="M650 886 c0 -13 20 -26 41 -26 15 0 10 27 -7 34 -24 9 -34 7 -34 -8z"/>
<path d="M616 821 c-4 -5 2 -15 13 -20 27 -15 41 -14 41 4 0 8 -4 15 -9 15 -5
0 -16 3 -24 6 -8 3 -18 1 -21 -5z"/>
<path d="M587 753 c-11 -10 13 -33 34 -33 25 0 24 16 0 30 -23 12 -26 12 -34
3z"/>
<path d="M560 670 c0 -11 40 -34 47 -26 3 3 3 12 0 21 -7 16 -47 21 -47 5z"/>
<path d="M525 601 c-6 -10 25 -31 44 -31 17 0 13 27 -5 34 -22 8 -32 8 -39 -3z"/>
<path d="M495 531 c-6 -10 25 -31 44 -31 17 0 13 27 -5 34 -22 8 -32 8 -39 -3z"/>
</g>
</svg>
